<?xml version="1.0" encoding="UTF-8"?>
<svg width="1920px" height="1079px" viewBox="0 0 1920 1079" version="1.1" xmlns="http://www.w3.org/2000/svg" xmlns:xlink="http://www.w3.org/1999/xlink">
    <!-- Generator: Sketch 49.2 (51160) - http://www.bohemiancoding.com/sketch -->
    <title>Group 29</title>
    <desc>Created with Sketch.</desc>
    <defs>
        <linearGradient x1="50%" y1="0%" x2="50%" y2="71.3354953%" id="linearGradient-1">
            <stop stop-color="#0E63B8" offset="0%"></stop>
            <stop stop-color="#003D79" offset="100%"></stop>
        </linearGradient>
        <rect id="path-2" x="0" y="0" width="1920" height="1078.64322"></rect>
        <path d="M0,52 C128.277344,119.839196 256.072266,153.758794 383.384766,153.758794 C567.646296,153.758794 729.960756,77.5795346 914.097656,68.8167007 C1056.85786,62.0229297 1247.82726,145.706291 1489.77539,143.005221 C1575.69245,142.046057 1719.10066,111.710983 1920,52 L1920,255.517588 L0,255.517588 L0,52 Z" id="path-4"></path>
    </defs>
    <g id="Page-1" stroke="none" stroke-width="1" fill="none" fill-rule="evenodd">
        <g id="Group-29">
            <g id="Group-47">
                <mask id="mask-3" fill="white">
                    <use xlink:href="#path-2"></use>
                </mask>
                <use id="Mask" fill="url(#linearGradient-1)" xlink:href="#path-2"></use>
                <g opacity="0.0991281703" mask="url(#mask-3)" id="Rectangle-17">
                    <g transform="translate(0.000000, 847.000000)" opacity="0.253509964">
                        <g>
                            <use fill="#BBDEFB" fill-rule="evenodd" xlink:href="#path-4"></use>
                            <path stroke="#979797" stroke-width="1" d="M0.5,52.8296717 L0.5,255.017588 L1919.5,255.017588 L1919.5,52.6701858 C1718.89554,112.267343 1575.66548,142.54639 1489.78097,143.50519 C1434.70694,144.120028 1379.58785,140.336019 1321.5283,132.599656 C1275.40379,126.453622 1231.31823,118.526844 1171.31343,106.236552 C1161.71493,104.27057 1113.05492,94.1540427 1099.76672,91.4546184 C1073.28156,86.0743066 1052.49364,82.1309118 1033.07209,78.8955714 C985.593779,70.9863934 947.838292,67.7115939 914.121424,69.3161355 C874.000237,71.2254502 833.043593,76.3810767 787.554631,84.7668864 C753.005258,91.1360022 725.157794,97.2804747 664.761905,111.365463 C656.290282,113.341139 653.75966,113.930959 649.641203,114.888746 C591.06778,128.510559 556.326411,135.898215 518.607384,142.149898 C470.407176,150.13877 426.51091,154.258794 383.384766,154.258794 C256.230608,154.258794 128.6007,120.447309 0.5,52.8296717 Z"></path>
                        </g>
                    </g>
                </g>
            </g>
        </g>
    </g>
</svg>